<svg xmlns="http://www.w3.org/2000/svg" viewBox="0 0 451.66 185.75"><defs><style>.cls-1{fill:#7b1fa2;}</style></defs><title>Asset 1</title><g id="Layer_2" data-name="Layer 2"><g id="Layer_1-2" data-name="Layer 1"><path class="cls-1" d="M181.44,66.35c-.93-4.7-2.08-9.42-3.4-14a3.59,3.59,0,0,0-4.29-2.45,9.77,9.77,0,0,1-10.61-4.32,3.69,3.69,0,0,0-2.31-1.64,3.47,3.47,0,0,0-2.66.49,17.56,17.56,0,0,1-26.34-9.1A3.59,3.59,0,0,0,127.45,33a20.15,20.15,0,0,1-4.66.62h0c-3.85,0-14.17-4.18-16.7-12.28a14.3,14.3,0,0,1-.61-4.32,12.74,12.74,0,0,1,.93-4.27,3.54,3.54,0,0,0-2-4.59,9.6,9.6,0,0,1-3.08-2A9.71,9.71,0,0,1,99,2.46,3.54,3.54,0,0,0,95.8.09C95,.05,94,0,93,0,65.11-.36,40.87,8.65,24.7,25.35,12.84,37.59,7.91,51.11,6.05,56.2A100.86,100.86,0,0,0,.43,83.33a118.57,118.57,0,0,0,1.4,30.83,124.27,124.27,0,0,0,9.5,29.73c.3.65,7.53,16.05,17.41,22.89a24.65,24.65,0,0,0,5.43,2.79,20.84,20.84,0,0,0,4.45,1c6.72.82,11.27-2.07,15.29-4.62,2.77-1.76,5.4-3.42,8.59-4,5.35-.88,8.9,2,13,5.28s8.88,7.14,16,6.64c6.17-.44,9.37-3.79,12.18-6.75,2.5-2.61,4.85-5.08,9.15-5.71,8.59-1.27,16.1,6,23.38,13,6,5.75,11.64,11.23,17.53,11.23a9.33,9.33,0,0,0,3-.49c4.71-1.57,7.55-6.78,13.19-17.14l.26-.47a87.3,87.3,0,0,0,6.41-15c7.09-21.56,8.06-42.76,8.14-50.87A172.31,172.31,0,0,0,181.44,66.35ZM142.26,159c-4.84-5.93-10.87-13.32-21.28-14.54a25.75,25.75,0,0,0-3-.17,30.57,30.57,0,0,0-3.92.26c-7.76,1-12.11,4.75-15.6,7.75-2.87,2.47-5.13,4.41-8.52,4.64-3.93.26-6.43-2-9.59-4.83-3.37-3-7.2-6.48-13.59-7.12-5.8-.58-11.84,1.37-17.88,5.73a15.9,15.9,0,0,1-6.77,2.39,11.29,11.29,0,0,1-4.35-.74,8.67,8.67,0,0,1-.85-.42,12,12,0,0,1-3.21-2.85c-2.83-3.38-27.28-34.27-16.91-77.24l.16-.67c1.94-8.07,6-24.88,20.4-38.49A69.3,69.3,0,0,1,78.11,14.05l.5-.05c4-.38,9-.86,11,2.29A9.57,9.57,0,0,1,91,20.38c.09.47.18,1,.31,1.63.74,3.84,3.2,13.3,10,18.17,4.14,3,9.69,4.07,16.71,5.46.82.16,1.15.21,1.35.24l.37.08c3.83,1,5.42,3.46,7.27,6.32,1.54,2.39,3.28,5.1,6.52,7.06,5.42,3.28,14,4,20.36,1.63l.62-.23a7.71,7.71,0,0,1,3.7-.75c3.52.3,6.2,5.42,7.09,7.1a44.49,44.49,0,0,1,3.64,10,92.19,92.19,0,0,1,2.55,18.48l0,.76c0,.77.08,1.49.05,2.18v0h0a209.88,209.88,0,0,1-2.67,28.32c-3.14,17.85-9.54,38.9-17.23,39.48C148.53,166.65,145.62,163.08,142.26,159Z"/><path class="cls-1" d="M41.87,69.4c-6.87,0-12.26,9.44-12.26,21.48S35,112.36,41.87,112.36s12.26-9.44,12.26-21.48S48.75,69.4,41.87,69.4Z"/><path class="cls-1" d="M115.26,69.4c-6.87,0-12.26,9.44-12.26,21.48s5.39,21.48,12.26,21.48,12.26-9.44,12.26-21.48S122.14,69.4,115.26,69.4Z"/><g id="aiq._branco" data-name="aiq. branco"><path id="Caminho_645" data-name="Caminho 645" class="cls-1" d="M378.11,78.68a8.48,8.48,0,0,1,11.17,3.63,32.6,32.6,0,0,1,2.86,12.86c.47,9,.34,22.61-6.86,25.34-11.08,4.21-13.83-7.53-14.3-16.33a61,61,0,0,1,.9-15.74C373,83.2,374.14,80.82,378.11,78.68Zm13.58-15.3c-1.4-.3-3.16-3.3-6.37-4.71a23.48,23.48,0,0,0-9.64-1.88c-13.71-.06-21.79,9.73-25.11,21.53-5.56,19.72-5.75,61.46,22.85,64,12.8,1.12,13.81-4,16.83-4.85a128.72,128.72,0,0,0,.41,18.21c1.61,5.17,9.31,3.71,14.18,3.72,7.75,0,9.2-.9,9.21-8.86V96c0-39.74,3.67-38-10.7-38a24.19,24.19,0,0,0-11.07,1.1Z"/><path id="Caminho_646" data-name="Caminho 646" class="cls-1" d="M245.9,109.22c15.6-4.44,19.28,15.13,7.77,18.56C238.37,132.33,232.37,113.06,245.9,109.22Zm-9.15-23.06c2.13-2.94,1.44-5,5.1-6.8a16.2,16.2,0,0,1,10-.76c7.22,2,6.66,9.33,6.66,17.4a29.11,29.11,0,0,0-15.77-4.64c-16.84.2-30.05,12.2-28.14,30.61,2,19.23,19.66,27.23,35.56,22.51,9-2.66,8.08-5.52,12-7.54,3.12,3.72,2.44,4.61,7.44,6.87,2.65,1.2,19.79,5.5,20.47-5.23a63,63,0,0,0-.43-14.06c-4,0-6.7.61-7.36-3.15-2.45-13.9,6.91-49.73-12.54-59.92a49.19,49.19,0,0,0-34.89-2.53C226,61.79,215.79,70.41,217.36,82.5c2.77,2.15,15.21,4,19.4,3.65Z"/><path id="Caminho_651" data-name="Caminho 651" class="cls-1" d="M331.28,96.7c4.4,0,8.72.29,10.14-3.59a44.55,44.55,0,0,0,.15-12.42c-1.47-6.29-11.65-4.43-21.93-4.43-6.82,0-21.22-2.64-22.55,4.72a40.16,40.16,0,0,0,.6,13c1.58,3.32,5.57,2.44,9.79,2.89l0,27.21c-4.21-.06-8.58-.44-10,3.44a45.2,45.2,0,0,0-.12,13.14c1.46,5.68,13.29,3.84,23.09,3.84,7,0,20.54,2.59,21.38-5.35,1.64-15.62-2.59-15.1-10.49-15.1Z"/><path id="Caminho_652" data-name="Caminho 652" class="cls-1" d="M313.68,41.18c-20.15,7.19-8.94,34,9.54,28.49A15.14,15.14,0,0,0,333.7,51c0-.13-.07-.26-.11-.39a15.55,15.55,0,0,0-19.84-9.46l-.07,0Z"/><path id="Caminho_652-2" data-name="Caminho 652-2" class="cls-1" d="M431.07,114.55c-20.15,7.19-8.94,34,9.54,28.48a15.13,15.13,0,0,0,10.48-18.66c0-.13-.07-.26-.11-.39a15.54,15.54,0,0,0-19.84-9.46l-.07,0Z"/></g></g></g></svg>