<svg width="237" height="79" viewBox="0 0 237 79" fill="none" xmlns="http://www.w3.org/2000/svg">
<path d="M32.4298 14.81C28.3668 14.555 24.4118 14.169 20.9978 10.122C19.6638 8.54101 20.0298 5.97901 22.5468 5.97901C24.2918 5.97901 25.6468 8.32501 26.6178 9.57901C26.0358 7.42001 24.2918 2.01102 27.3908 0.931018C31.4618 -0.331982 30.9358 6.38801 31.1268 8.36801C34.2818 1.11101 41.0968 4.94601 36.1138 10.479C41.8058 8.47101 42.2138 15.414 35.4288 14.992L32.4298 14.81Z" fill="#EB2F96"/>
<path d="M78.0759 32.932H83.1949V36.032C83.7148 35.4006 84.3518 34.8756 85.0709 34.486C85.9395 34.0383 86.8529 33.6833 87.796 33.427C89.1751 33.0681 90.5972 32.9018 92.0219 32.933V38.052C91.0774 38.0609 90.1348 38.1394 89.2019 38.287C88.2135 38.4324 87.2456 38.6932 86.3179 39.064C85.485 39.3845 84.7259 39.871 84.0869 40.494C83.7951 40.7813 83.5654 41.1253 83.4119 41.505C83.2585 41.8846 83.1846 42.2917 83.1949 42.701V57.961H78.0759V32.932Z" fill="#EB2F96"/>
<path d="M108.223 32.926C109.894 32.9167 111.548 33.2531 113.083 33.914C116.083 35.1847 118.467 37.5776 119.727 40.582C120.385 42.1252 120.72 43.7872 120.711 45.465C120.722 47.1368 120.387 48.7928 119.727 50.329C118.456 53.3206 116.075 55.7024 113.083 56.973C111.545 57.6223 109.893 57.9569 108.223 57.9569C106.554 57.9569 104.902 57.6223 103.364 56.973C101.879 56.3363 100.525 55.4285 99.3729 54.296C98.2264 53.1595 97.3096 51.8126 96.6729 50.329C96.0133 48.7928 95.6783 47.1368 95.689 45.465C95.6796 43.7872 96.0145 42.1253 96.6729 40.582C97.3043 39.0885 98.2215 37.7327 99.3729 36.591C100.523 35.456 101.877 34.5478 103.364 33.914C104.898 33.2523 106.553 32.916 108.224 32.926H108.223ZM108.224 53.073C109.247 53.0788 110.262 52.8796 111.207 52.487C112.109 52.1063 112.929 51.5545 113.621 50.862C114.315 50.1668 114.873 49.3481 115.266 48.448C115.668 47.5054 115.875 46.4913 115.875 45.4665C115.875 44.4418 115.668 43.4276 115.266 42.485C114.479 40.6637 113.027 39.2108 111.207 38.422C110.264 38.0199 109.249 37.8126 108.223 37.8126C107.198 37.8126 106.183 38.0199 105.24 38.422C104.34 38.8152 103.52 39.3716 102.822 40.063C102.126 40.7597 101.568 41.5814 101.177 42.485C100.777 43.4282 100.571 44.4422 100.571 45.4665C100.571 46.4909 100.777 47.5048 101.177 48.448C101.57 49.3481 102.128 50.1668 102.822 50.862C103.53 51.5713 104.372 52.1323 105.299 52.5119C106.226 52.8916 107.22 53.0823 108.222 53.073" fill="#EB2F96"/>
<path d="M37.1009 63.663C36.697 63.663 36.3096 63.5026 36.024 63.217C35.7383 62.9313 35.5779 62.544 35.5779 62.14C35.5779 61.7361 35.7383 61.3487 36.024 61.0631C36.3096 60.7775 36.697 60.617 37.1009 60.617H37.7779C43.1189 60.617 48.1619 60.617 52.1549 57.038C54.3736 54.9496 55.7912 52.1504 56.1619 49.126C56.4889 46.987 57.4859 40.471 55.2009 37.04C54.9108 36.5656 54.5174 36.1628 54.0498 35.8616C53.5823 35.5605 53.0528 35.3689 52.5009 35.301C51.9788 35.2789 51.4584 35.3739 50.9779 35.5791C50.4974 35.7844 50.0689 36.0946 49.7239 36.487C47.3469 39.023 47.1859 42.536 47.2239 46.216C47.2469 48.243 47.2779 50.816 45.5179 52.389C43.2029 54.435 40.6729 54.501 37.9949 54.567L37.7629 54.575C37.5626 54.5784 37.3636 54.5424 37.1773 54.4689C36.991 54.3954 36.821 54.2859 36.6769 54.1467C36.5329 54.0075 36.4177 53.8414 36.3379 53.6576C36.2581 53.4739 36.2153 53.2763 36.2119 53.076C36.2085 52.8758 36.2445 52.6768 36.318 52.4905C36.3915 52.3041 36.501 52.1341 36.6402 51.9901C36.7794 51.846 36.9456 51.7308 37.1293 51.651C37.313 51.5713 37.5106 51.5285 37.7109 51.525C42.2059 51.42 44.1739 50.977 44.1799 47.153V46.142C44.1719 42.878 44.1629 39.175 46.1849 36.094C46.8958 34.8767 47.9359 33.8847 49.1856 33.2323C50.4352 32.5799 51.8437 32.2935 53.2489 32.406C54.4878 32.5878 55.6485 33.1213 56.5932 33.9433C57.5378 34.7653 58.2266 35.8411 58.5779 37.043C61.0779 43.975 59.9099 54.571 54.1979 59.293C48.9379 63.648 43.1889 63.656 37.1009 63.663Z" fill="#142355"/>
<path d="M18.6188 54.062C12.4108 54.062 7.85584 51.868 4.75584 47.403C2.8176 44.5292 1.62571 41.2178 1.28784 37.768C0.822842 33.777 0.478842 29.226 2.28784 25.748C3.59684 23.223 5.74984 21.893 8.09984 22.148C10.7758 22.413 13.1668 24.638 14.0528 27.691C14.4357 29.4619 14.6368 31.2673 14.6528 33.079C14.8458 36.837 15.0868 41.516 17.0688 42.726C17.8838 43.226 19.0778 43.119 20.6238 42.426C20.8701 42.311 21.1426 42.2641 21.413 42.2902C21.6835 42.3162 21.9421 42.4142 22.1618 42.574C22.3873 42.7308 22.5675 42.9442 22.6842 43.1928C22.801 43.4414 22.8502 43.7163 22.8268 43.99C22.8009 44.2415 22.7082 44.4816 22.5585 44.6854C22.4087 44.8891 22.2072 45.0492 21.9748 45.149C19.5378 46.249 17.5598 46.374 15.9198 45.519C13.9518 44.5 12.6778 42.182 11.9078 38.219C11.6702 36.7818 11.5595 35.3266 11.5768 33.87C11.6248 32.27 11.462 30.6706 11.0928 29.113C10.5928 27.405 9.42985 25.445 8.16185 25.001C7.87301 24.9025 7.5631 24.8831 7.2642 24.9446C6.96531 25.0061 6.68829 25.1465 6.46184 25.351C3.53484 27.42 3.92985 32.751 4.14385 35.62C4.44385 39.658 5.26984 42.61 6.75184 44.913C9.95184 49.873 14.6578 51.689 22.0678 50.798C22.2562 50.77 22.4482 50.7807 22.6323 50.8294C22.8163 50.8782 22.9885 50.964 23.1382 51.0815C23.288 51.1991 23.4122 51.346 23.5033 51.5132C23.5943 51.6804 23.6503 51.8644 23.6678 52.054C23.722 52.4703 23.6086 52.891 23.3527 53.2236C23.0967 53.5563 22.7191 53.7737 22.3028 53.828C21.0806 53.9798 19.8504 54.0579 18.6188 54.062Z" fill="#142355"/>
<path d="M32.015 78.122C31.1719 78.1163 30.3343 77.9866 29.529 77.737C25.684 76.574 23.229 73.221 22.422 68.037C21.922 64.789 21.728 61.437 21.541 58.203C21.422 56.153 21.3039 54.103 21.1089 52.076C20.9089 50.014 20.675 47.937 20.438 45.848C19.6571 40.1397 19.2608 34.3854 19.252 28.624C19.373 23.287 20.493 19.35 22.673 16.593C25.443 13.104 29.6419 12.221 34.5079 14.107C34.5079 14.107 34.508 14.107 34.514 14.107C34.568 14.126 34.623 14.146 34.675 14.169C42.496 17.709 41.375 29.55 40.765 35.914C40.51 38.614 40.1909 41.134 39.8719 43.647C39.5379 46.292 39.201 48.933 38.962 51.586L38.862 52.621C38.398 56.6294 38.2096 60.6648 38.298 64.699C38.327 65.36 38.374 66.018 38.419 66.671C38.6006 68.4992 38.615 70.3402 38.462 72.171C38.3658 73.804 37.6395 75.3358 36.4361 76.4439C35.2328 77.5519 33.6463 78.1496 32.011 78.111L32.015 78.122ZM29.539 16.122C28.3069 16.0764 27.1035 16.5003 26.172 17.308C24.6522 18.7529 23.5914 20.6132 23.1219 22.657C21.8069 27.593 22.3339 32.907 22.8439 38.045C22.9339 38.945 23.023 39.834 23.101 40.721C23.301 42.946 23.517 45.167 23.737 47.388C24.214 52.176 24.704 57.124 24.931 62.022L24.95 62.43C25.141 66.763 25.4289 73.318 29.8439 74.656C31.7499 75.235 33.137 75.189 33.979 74.528C35.679 73.194 35.479 69.288 35.321 66.153C35.276 65.293 35.235 64.476 35.229 63.753C35.304 57.0211 35.8349 50.3021 36.8179 43.642L36.9539 42.592C37.7361 37.6651 38.0934 32.6801 38.022 27.692C37.828 23.343 37.122 18.675 33.3829 16.944C32.1615 16.4404 30.8595 16.1603 29.539 16.117V16.122Z" fill="#142355"/>
<path d="M133.425 32.982C134.228 33.0353 135.022 33.1823 135.791 33.42C136.383 33.6125 136.964 33.8372 137.532 34.093C138.033 34.3606 138.514 34.6654 138.97 35.005L136.19 38.654C135.974 38.4064 135.718 38.1965 135.433 38.033C135.137 37.8283 134.815 37.6623 134.477 37.539C134.027 37.3709 133.556 37.2698 133.077 37.239C132.646 37.165 132.205 37.1773 131.779 37.2751C131.353 37.373 130.951 37.5545 130.596 37.809C130.354 38.0015 130.154 38.2406 130.006 38.5123C129.859 38.7839 129.768 39.0824 129.739 39.39C129.687 39.7505 129.733 40.1182 129.87 40.4556C130.007 40.7929 130.231 41.0878 130.52 41.31C131.199 41.7958 131.952 42.1695 132.75 42.417C133.659 42.7237 134.644 43.0183 135.706 43.301C136.747 43.5741 137.736 44.0156 138.634 44.608C139.53 45.2029 140.265 46.0102 140.773 46.958C141.356 48.2053 141.571 49.5927 141.394 50.958C141.319 51.9747 141.027 52.9636 140.538 53.858C140.045 54.7617 139.358 55.5451 138.527 56.152C137.61 56.8137 136.576 57.2961 135.48 57.574C134.195 57.9002 132.865 58.0067 131.545 57.889C130.519 57.8245 129.505 57.6276 128.53 57.303C127.748 57.0375 126.993 56.6987 126.275 56.291C125.681 55.9469 125.12 55.5496 124.598 55.104C124.128 54.69 123.718 54.343 123.359 54.068L126.179 50.419C127.171 51.4171 128.34 52.2233 129.625 52.797C130.343 53.1242 131.101 53.3546 131.879 53.482C133.5 53.6093 134.598 53.4023 135.173 52.861C135.783 52.2488 136.132 51.4248 136.149 50.561C136.212 50.1607 136.176 49.7511 136.045 49.3678C135.914 48.9844 135.691 48.6389 135.396 48.361C134.745 47.816 134.005 47.3861 133.209 47.09C132.254 46.7151 131.281 46.3893 130.293 46.114C129.272 45.8336 128.296 45.4111 127.393 44.859C126.394 44.2775 125.595 43.4063 125.102 42.3607C124.609 41.3152 124.446 40.1446 124.633 39.004C124.671 37.9938 124.97 37.0107 125.501 36.1507C126.032 35.2906 126.778 34.5831 127.664 34.097C128.521 33.6199 129.454 33.2926 130.421 33.129C131.411 32.9541 132.419 32.9034 133.421 32.978" fill="#142355"/>
<path d="M171.14 34.344V57.961H166.022V54.579C164.944 55.9743 163.584 57.1267 162.031 57.961C160.549 58.7511 158.902 59.1838 157.223 59.2246C155.543 59.2654 153.878 58.9132 152.359 58.196C150.928 57.5123 149.644 56.5557 148.579 55.38C146.31 52.8329 145.057 49.5409 145.057 46.13C145.057 42.7191 146.31 39.4271 148.579 36.88C149.644 35.7043 150.928 34.7478 152.359 34.064C153.794 33.3765 155.367 33.0237 156.959 33.032C158.726 33.0201 160.469 33.4472 162.03 34.275C163.594 35.1043 164.956 36.267 166.021 37.681V34.344H171.14ZM158.322 53.969C159.353 53.9753 160.375 53.7679 161.322 53.36C162.237 52.9693 163.066 52.4037 163.764 51.695C164.459 50.9809 165.016 50.145 165.409 49.229C165.811 48.2656 166.018 47.232 166.018 46.188C166.018 45.144 165.811 44.1104 165.409 43.147C165.022 42.2212 164.464 41.3765 163.764 40.657C163.067 39.9471 162.237 39.3813 161.322 38.992C160.372 38.5895 159.35 38.3821 158.318 38.3821C157.286 38.3821 156.265 38.5895 155.315 38.992C153.445 39.7817 151.96 41.2737 151.18 43.147C150.778 44.1104 150.571 45.144 150.571 46.188C150.571 47.232 150.778 48.2656 151.18 49.229C151.971 51.0895 153.454 52.5704 155.315 53.36C156.262 53.7679 157.284 53.9753 158.315 53.969" fill="#142355"/>
<path d="M182.308 23.12H177.19V57.958H182.308V23.12Z" fill="#142355"/>
<path d="M198.356 57.959L185.773 32.932H191.873L198.354 46.081L204.831 32.932H210.938L198.356 57.959Z" fill="#142355"/>
<path d="M223.874 32.926C225.546 32.9165 227.201 33.2528 228.737 33.914C231.737 35.1848 234.121 37.5777 235.381 40.582C236.039 42.1252 236.374 43.7872 236.365 45.465C236.376 47.1368 236.041 48.7928 235.381 50.329C234.11 53.3205 231.728 55.7023 228.737 56.973C227.198 57.6225 225.545 57.9571 223.875 57.9571C222.205 57.9571 220.552 57.6225 219.014 56.973C217.53 56.3344 216.177 55.4268 215.023 54.296C213.876 53.1597 212.959 51.8127 212.323 50.329C211.663 48.7928 211.328 47.1368 211.339 45.465C211.33 43.7872 211.664 42.1252 212.323 40.582C212.954 39.0883 213.871 37.7324 215.023 36.591C216.175 35.4576 217.528 34.5497 219.014 33.914C220.548 33.2526 222.203 32.9163 223.874 32.926ZM223.874 53.073C224.876 53.0824 225.87 52.8916 226.797 52.512C227.724 52.1323 228.566 51.5714 229.274 50.862C229.966 50.1657 230.524 49.3473 230.919 48.448C231.321 47.5054 231.528 46.4913 231.528 45.4665C231.528 44.4418 231.321 43.4276 230.919 42.485C230.132 40.6624 228.679 39.2091 226.856 38.422C225.913 38.02 224.899 37.8128 223.874 37.8128C222.85 37.8128 221.836 38.02 220.893 38.422C219.992 38.8142 219.172 39.3707 218.475 40.063C217.779 40.7597 217.221 41.5814 216.83 42.485C216.428 43.4276 216.221 44.4418 216.221 45.4665C216.221 46.4913 216.428 47.5054 216.83 48.448C217.223 49.3481 217.781 50.1668 218.475 50.862C219.183 51.5713 220.025 52.1323 220.952 52.5119C221.879 52.8916 222.873 53.0823 223.875 53.073" fill="#142355"/>
</svg>
